<?xml version="1.0" standalone="no"?>
<!DOCTYPE svg PUBLIC "-//W3C//DTD SVG 20010904//EN"
 "http://www.w3.org/TR/2001/REC-SVG-20010904/DTD/svg10.dtd">
<svg version="1.0" xmlns="http://www.w3.org/2000/svg"
 width="500.000000pt" height="500.000000pt" viewBox="0 0 500.000000 500.000000"
 preserveAspectRatio="xMidYMid meet">
<metadata>
Created by potrace 1.14, written by Peter Selinger 2001-2017
</metadata>
<g transform="translate(0.000000,500.000000) scale(0.100000,-0.100000)"
fill="#000000" stroke="none">
<path d="M1717 4003 c-3 -5 -17 -51 -31 -103 -75 -286 -110 -406 -120 -416 -6
-7 -40 -19 -76 -27 -549 -128 -1103 -407 -1287 -649 -88 -116 -124 -210 -129
-337 -7 -193 59 -346 238 -545 53 -59 170 -158 263 -221 115 -79 404 -235 435
-235 12 0 7 -41 -10 -90 -5 -14 -30 -104 -56 -200 -25 -96 -49 -179 -51 -183
-5 -9 1848 -4 1912 5 22 3 63 9 90 12 43 6 238 47 285 60 61 17 198 74 260
108 292 160 444 397 454 707 9 267 -125 475 -386 595 l-69 33 63 18 c85 24
242 99 298 142 212 161 313 361 312 620 0 34 -3 67 -7 72 -6 10 -267 8 -420
-3 -33 -3 -118 -7 -190 -11 -71 -3 -157 -7 -190 -10 -33 -3 -89 -7 -125 -10
-71 -6 -122 -14 -129 -21 -2 -2 7 -4 20 -4 44 0 125 -48 155 -92 25 -36 29
-50 29 -112 -1 -139 -80 -225 -256 -277 -68 -20 -101 -22 -426 -26 -194 -3
-353 -2 -353 1 0 4 77 305 96 374 5 18 2 22 -18 22 -14 0 -46 -6 -71 -14 -26
-8 -47 -12 -47 -10 0 2 -11 -1 -26 -6 -14 -6 -38 -12 -53 -15 -111 -19 -618
-194 -678 -233 -13 -8 -23 -20 -23 -26 0 -7 -9 -42 -19 -77 -18 -58 -138 -493
-146 -529 -2 -8 -34 -123 -70 -255 -36 -132 -77 -283 -91 -335 -14 -52 -30
-99 -35 -104 -12 -13 -224 202 -289 293 -62 87 -123 212 -145 296 -17 64 -18
190 -3 240 76 244 360 475 795 646 103 40 231 86 263 94 8 2 40 11 70 20 76
23 321 86 345 90 11 2 65 12 120 24 55 11 118 23 140 26 22 4 47 8 55 10 8 2
38 7 65 10 28 4 57 8 65 11 8 2 38 6 65 9 28 3 86 10 130 16 168 21 218 26
325 34 41 3 100 8 130 10 30 2 123 7 205 11 83 3 179 8 215 10 85 4 640 5 705
0 28 -2 95 -7 150 -10 108 -7 294 -25 335 -32 14 -2 53 -7 88 -10 51 -5 62 -4
62 8 0 27 -342 113 -585 149 -44 6 -87 13 -95 14 -8 2 -49 6 -90 11 -41 4 -78
9 -82 10 -5 1 -15 2 -23 3 -9 0 -18 9 -22 19 -14 38 -94 128 -164 183 -42 33
-53 40 -123 78 -89 49 -265 102 -396 118 -25 3 -65 9 -90 13 -59 11 -1537 13
-1543 3z m1144 -1811 c119 -39 176 -115 167 -224 -10 -126 -108 -228 -258
-268 -25 -7 -54 -15 -65 -18 -21 -6 -795 -16 -795 -10 0 5 37 140 60 218 12
41 23 82 25 90 2 8 19 66 37 128 l32 114 366 -4 c340 -4 369 -6 431 -26z"/>
</g>
</svg>
