<svg width="20" height="21" fill="none" xmlns="http://www.w3.org/2000/svg">
  <path
    d="M10.007 19.967c-1.051 0-2.105.015-3.156-.003-.871-.014-1.746-.04-2.6-.248-1.479-.359-2.634-1.16-3.401-2.482-.408-.706-.628-1.478-.721-2.285-.142-1.218-.125-2.444-.127-3.668-.003-1.345-.003-2.69.011-4.035.009-.856.023-1.715.168-2.566.27-1.55.999-2.811 2.333-3.682A5.337 5.337 0 0 1 5.036.142a50.677 50.677 0 0 1 3.179-.13 224.79 224.79 0 0 1 4.632.006c.883.008 1.766.026 2.637.2 1.604.317 2.863 1.136 3.68 2.57.44.773.657 1.623.732 2.506.116 1.345.101 2.695.101 4.046 0 1.25 0 2.496-.02 3.746-.014.865-.032 1.736-.237 2.586-.507 2.097-1.792 3.448-3.882 4.015-.736.2-1.491.248-2.25.263-1.201.023-2.403.038-3.601.055v-.038zm-.03-1.764v-.038c1.043 0 2.085.012 3.127-.003.721-.008 1.448-.02 2.157-.182 1.45-.332 2.363-1.212 2.713-2.664.194-.807.197-1.634.205-2.456.02-1.64.015-3.277.012-4.917-.003-.972 0-1.947-.145-2.913-.24-1.617-1.245-2.687-2.84-3.028-.773-.165-1.563-.168-2.348-.18-1.398-.02-2.8-.014-4.197-.014-1.147 0-2.296-.011-3.44.122-.634.072-1.239.251-1.774.613-.82.555-1.274 1.345-1.462 2.302-.145.73-.163 1.467-.165 2.201-.01 2.115.002 4.232.014 6.35.003.621.035 1.243.174 1.854.28 1.246.984 2.134 2.203 2.583.634.231 1.297.295 1.963.312l3.804.058z"
    fill="#fff"/>
  <path
    d="M15.131 9.988c.003 2.812-2.29 5.117-5.072 5.14-2.858.023-5.2-2.288-5.197-5.128.006-2.826 2.29-5.129 5.098-5.132 2.87-.008 5.168 2.27 5.171 5.12zM9.998 13.32c1.833.018 3.364-1.515 3.335-3.396-.026-1.784-1.526-3.262-3.358-3.26-1.841.003-3.312 1.502-3.31 3.376.007 1.802 1.512 3.286 3.333 3.28zm4.14-8.671a1.21 1.21 0 0 1 1.201-1.192 1.198 1.198 0 1 1-.02 2.398c-.649 0-1.181-.544-1.181-1.206z"
    fill="#fff"/>
</svg>
