<svg width="20" height="17" fill="none" xmlns="http://www.w3.org/2000/svg">
  <path
    d="M20 2.256a8.65 8.65 0 0 1-2.345.64 4.005 4.005 0 0 0 1.802-2.22c-.782.47-1.672.79-2.606.982A4.15 4.15 0 0 0 13.855.376c-2.259 0-4.105 1.816-4.105 4.037 0 .32.044.62.109.918a11.712 11.712 0 0 1-8.447-4.207 4.013 4.013 0 0 0-.565 2.029c0 1.388.717 2.627 1.824 3.353a3.847 3.847 0 0 1-1.846-.513v.043c0 1.943 1.412 3.588 3.28 3.95-.348.086-.696.15-1.087.15-.26 0-.52-.021-.781-.064a4.081 4.081 0 0 0 3.822 2.798A8.278 8.278 0 0 1 .977 14.6 7.51 7.51 0 0 1 0 14.536a11.698 11.698 0 0 0 6.276 1.815c7.535 0 11.661-6.15 11.661-11.468 0-.171 0-.342-.022-.513A7.775 7.775 0 0 0 20 2.256z"
    fill="#fff"/>
</svg>
