<svg width="47" height="30" fill="none" xmlns="http://www.w3.org/2000/svg">
  <path
    d="M45.763 0H1.237C.554 0 0 .56 0 1.25v27.5C0 29.44.554 30 1.237 30h44.526c.683 0 1.237-.56 1.237-1.25V1.25C47 .56 46.446 0 45.763 0z"
    fill="#0C489C"/>
  <path fill-rule="evenodd" clip-rule="evenodd"
        d="M31.587 15.082c.058 1.742.115 3.54.03 5.313-.057.695-.484 1.363-1.11 1.769-.484.319-1.08.348-1.707.377l-2.262-.029-.014-14.77c.114-.988.825-1.83 1.736-2.09 1.11-.146 2.133-.088 3.3-.117l.056.755v8.387l-.03.028v.377zm-16.386-.55V7.567c.142-.784.768-1.509 1.508-1.799 1.11-.348 2.39-.143 3.529-.175.056 1.134 0 2.555.028 3.542l.057 9.082c-.143 1.394.37 3.28-1.338 4.063-1.081.551-2.53.204-3.755.32l-.028-.203v-7.864zm10.725-7.98l.028 14.132c-.198.667-.71 1.392-1.422 1.653-1.08.378-2.417.204-3.612.204l-.057-14.887c.057-.698.511-1.305 1.109-1.683.428-.291.94-.379 1.48-.407h2.418l.056.987z"
        fill="#fff"/>
  <path fill-rule="evenodd" clip-rule="evenodd"
        d="M15.201 14.821c.455.61 1.081 1.074 1.85 1.103.938.087 2.161.175 2.787-.725.428-.465.17-1.103.257-1.713l-.028-1.102c-.542-.117-1.025 0-1.65-.029-.313 1.19.51 2.525-.826 3.134-.313.087-.767.03-1.081-.174-.512-.116-.228-.957-.91-.725l-.398-.057v.288zM25.7 12.384c.057.175 0 .32.028.522-.852-.232-1.905-.494-2.673.145-.285.348-.455.698-.427 1.162.085.522.398 1.014.882 1.218.738.233 1.506.029 2.19-.146.028.146.057.349 0 .465h-3.271c-.569-.116-1.025-.435-1.28-1.015-.228-.553-.114-1.306.284-1.771a1.645 1.645 0 0 1 1.365-.609l2.902.029zm4.012 1.916c-.54-.088-1.081-.059-1.593-.03a5.4 5.4 0 0 0 .056 1.19c.57 0 1.195.087 1.707-.175a.623.623 0 0 0 .17-.58c-.027-.172-.171-.319-.34-.406v.001zm-1.537-1.596c-.086.317-.086.753-.028 1.101.597-.027 1.365.204 1.764-.26.142-.175.057-.464-.03-.61-.454-.406-1.138-.145-1.707-.231h.001zm3.414 2.378c-.085.35-.371.668-.711.725h-3.983l-.142-.057c0-1.16-.028-2.262.029-3.395h2.531c.797.088 1.679-.263 2.048.494.114.261.087.608-.113.812-.114.203-.371.233-.427.377.313.087.655.35.767.667v.377h.001z"
        fill="#0C489C"/>
</svg>
